<svg xmlns="http://www.w3.org/2000/svg" fill="none" viewBox="-0.5 -0.5 14 14" height="14" width="14"><g id="happy-face--smiley-chat-message-smile-emoji-face-satisfied"><path id="Vector" stroke="#000" stroke-linecap="round" stroke-linejoin="round" d="M6.5 12.535714285714286c3.3334785714285715 0 6.035714285714286 -2.702235714285714 6.035714285714286 -6.035714285714286C12.535714285714286 3.1665678571428573 9.833478571428572 0.4642857142857143 6.5 0.4642857142857143 3.1665678571428573 0.4642857142857143 0.4642857142857143 3.1665678571428573 0.4642857142857143 6.5c0 3.3334785714285715 2.702282142857143 6.035714285714286 6.035714285714286 6.035714285714286Z" stroke-width="1"></path><path id="Vector_2" stroke="#000" stroke-linecap="round" stroke-linejoin="round" d="M3.435667857142857 7.428571428571429c0.4642857142857143 1.6714285714285715 2.3214285714285716 2.692857142857143 3.992857142857143 2.2285714285714286 1.0214285714285716 -0.37142857142857144 1.8571428571428572 -1.2071428571428573 2.1357607142857145 -2.2285714285714286" stroke-width="1"></path><g id="Group 623"><path id="Vector_3" stroke="#000" stroke-linecap="round" stroke-linejoin="round" d="M4.410714285714286 5.107142857142858c-0.12820785714285715 0 -0.23214285714285715 -0.103935 -0.23214285714285715 -0.23214285714285715S4.282506428571429 4.642857142857143 4.410714285714286 4.642857142857143" stroke-width="1"></path><path id="Vector_4" stroke="#000" stroke-linecap="round" stroke-linejoin="round" d="M4.410714285714286 5.107142857142858c0.12820785714285715 0 0.23214285714285715 -0.103935 0.23214285714285715 -0.23214285714285715S4.538922142857143 4.642857142857143 4.410714285714286 4.642857142857143" stroke-width="1"></path></g><g id="Group 624"><path id="Vector_5" stroke="#000" stroke-linecap="round" stroke-linejoin="round" d="M8.589285714285715 5.107142857142858c-0.12820785714285715 0 -0.23214285714285715 -0.103935 -0.23214285714285715 -0.23214285714285715S8.461077857142858 4.642857142857143 8.589285714285715 4.642857142857143" stroke-width="1"></path><path id="Vector_6" stroke="#000" stroke-linecap="round" stroke-linejoin="round" d="M8.589285714285715 5.107142857142858c0.12820785714285715 0 0.23214285714285715 -0.103935 0.23214285714285715 -0.23214285714285715S8.717493571428573 4.642857142857143 8.589285714285715 4.642857142857143" stroke-width="1"></path></g></g></svg>