<svg xmlns="http://www.w3.org/2000/svg" fill="none" viewBox="-0.5 -0.5 14 14" height="14" width="14"><g id="user-profile-focus--close-geometric-human-person-profile-focus-user"><path id="Vector" stroke="#000" stroke-linecap="round" stroke-linejoin="round" d="M12.535714285714286 9.75v1.8571428571428572c0 0.24625714285714287 -0.09787142857142857 0.48248571428571424 -0.27197857142857146 0.6565928571428571s-0.4103357142857143 0.27197857142857146 -0.6565928571428571 0.27197857142857146h-1.8571428571428572" stroke-width="1"></path><path id="Vector_2" stroke="#000" stroke-linecap="round" stroke-linejoin="round" d="M9.75 0.4642857142857143h1.8571428571428572c0.24625714285714287 0 0.48248571428571424 0.09783150000000002 0.6565928571428571 0.27197207142857144 0.17410714285714285 0.1741415 0.27197857142857146 0.41032364285714285 0.27197857142857146 0.6565993571428572v1.8571428571428572" stroke-width="1"></path><path id="Vector_3" stroke="#000" stroke-linecap="round" stroke-linejoin="round" d="M0.4642857142857143 3.25v-1.8571428571428572c0 -0.2462757142857143 0.09783150000000002 -0.48245785714285716 0.27197207142857144 -0.6565993571428572C0.9103992857142857 0.5621172142857144 1.1465814285714286 0.4642857142857143 1.3928571428571428 0.4642857142857143h1.8571428571428572" stroke-width="1"></path><path id="Vector_4" stroke="#000" stroke-linecap="round" stroke-linejoin="round" d="M3.25 12.535714285714286h-1.8571428571428572c-0.2462757142857143 0 -0.48245785714285716 -0.09787142857142857 -0.6565993571428572 -0.27197857142857146C0.5621172142857144 12.089628571428573 0.4642857142857143 11.8534 0.4642857142857143 11.607142857142858v-1.8571428571428572" stroke-width="1"></path><path id="Vector_5" stroke="#000" stroke-linecap="round" stroke-linejoin="round" d="M6.499767857142857 6.035695714285715c1.0256628571428572 0 1.8571335714285715 -0.8314707142857143 1.8571335714285715 -1.8571335714285715S7.525430714285714 2.3214285714285716 6.499767857142857 2.3214285714285716c-1.025672142857143 0 -1.8571335714285715 0.8314707142857143 -1.8571335714285715 1.8571335714285715s0.8314614285714286 1.8571335714285715 1.8571335714285715 1.8571335714285715Z" stroke-width="1"></path><path id="Vector_6" stroke="#000" stroke-linecap="round" stroke-linejoin="round" d="M10.031728571428571 10.214378571428572c-0.23994285714285718 -0.74815 -0.7111928571428572 -1.4006757142857145 -1.3458528571428572 -1.863652142857143 -0.6346692857142858 -0.4629857142857143 -1.3999792857142859 -0.7124557142857144 -2.1855785714285716 -0.7124557142857144 -0.7855992857142857 0 -1.5509 0.24947000000000003 -2.1855785714285716 0.7124557142857144 -0.6346785714285714 0.46297642857142857 -1.1059285714285716 1.115502142857143 -1.345825 1.863652142857143h7.062835000000001Z" stroke-width="1"></path></g></svg>