<svg xmlns="http://www.w3.org/2000/svg" fill="none" viewBox="-0.5 -0.5 14 14" height="14" width="14"><g id="chat-bubble-square-question--bubble-square-messages-notification-chat-message-question-help"><path id="Vector" stroke="#000" stroke-linecap="round" stroke-linejoin="round" d="m4.178571428571429 11.607142857142858 -3.7142857142857144 0.9285714285714286 0.9285714285714286 -2.7857142857142856v-8.357142857142858c0 -0.2462757142857143 0.09783428571428571 -0.48245785714285716 0.2719692857142857 -0.6565993571428572C1.8389707142857143 0.5621172142857144 2.0751528571428572 0.4642857142857143 2.3214285714285716 0.4642857142857143h9.285714285714286c0.24625714285714287 0 0.48248571428571424 0.09783150000000002 0.6565928571428571 0.27197207142857144 0.17410714285714285 0.1741415 0.27197857142857146 0.41032364285714285 0.27197857142857146 0.6565993571428572v9.285714285714286c0 0.24625714285714287 -0.09787142857142857 0.48248571428571424 -0.27197857142857146 0.6565928571428571s-0.4103357142857143 0.27197857142857146 -0.6565928571428571 0.27197857142857146h-7.428571428571429Z" stroke-width="1"></path><path id="Vector_2" stroke="#000" stroke-linecap="round" stroke-linejoin="round" d="M5.571428571428571 4.642857142857143c0 -0.2754792857142857 0.08168642857142858 -0.5447742857142858 0.23474285714285717 -0.7738250000000001 0.15304714285714285 -0.22906 0.37058357142857146 -0.40758714285714287 0.6250864285714286 -0.5130078571428571 0.25451214285714285 -0.1054207142857143 0.5345692857142857 -0.13300857142857145 0.8047650000000001 -0.07926285714285715 0.2701864285714286 0.053745714285714286 0.5183657142857143 0.18640142857142858 0.7131614285714286 0.38119714285714285 0.1947957142857143 0.1947957142857143 0.3274514285714286 0.442975 0.38119714285714285 0.7131707142857143 0.053745714285714286 0.2701864285714286 0.026157857142857146 0.5502435714285715 -0.07926285714285715 0.8047557142857144 -0.1054207142857143 0.25450285714285714 -0.28394785714285714 0.4720392857142857 -0.5130078571428571 0.6250864285714286C7.50906 5.954027857142857 7.239765 6.035714285714286 6.964285714285714 6.035714285714286v0.9285714285714286" stroke-width="1"></path><g id="Group 4488"><path id="Vector_3" stroke="#000" stroke-linecap="round" stroke-linejoin="round" d="M6.964285714285714 9.285714285714286c-0.12820785714285715 0 -0.23214285714285715 -0.103935 -0.23214285714285715 -0.23214285714285715s0.103935 -0.23214285714285715 0.23214285714285715 -0.23214285714285715" stroke-width="1"></path><path id="Vector_4" stroke="#000" stroke-linecap="round" stroke-linejoin="round" d="M6.964285714285714 9.285714285714286c0.12820785714285715 0 0.23214285714285715 -0.103935 0.23214285714285715 -0.23214285714285715s-0.103935 -0.23214285714285715 -0.23214285714285715 -0.23214285714285715" stroke-width="1"></path></g></g></svg>